<svg width="36" height="30" viewBox="0 0 36 30" fill="none" xmlns="http://www.w3.org/2000/svg">
<g opacity="0.6">
<path d="M16.3125 24.375C15.953 24.375 15.6031 24.2789 15.3141 24.1008C15.298 24.0915 15.2825 24.0815 15.2677 24.0709L8.8425 19.6875H3.9375C3.48995 19.6875 3.06072 19.5393 2.74426 19.2756C2.42779 19.0119 2.25 18.6542 2.25 18.2813V11.7188C2.25 11.3458 2.42779 10.9881 2.74426 10.7244C3.06072 10.4607 3.48995 10.3125 3.9375 10.3125H8.8418L15.2662 5.92911C15.2811 5.9185 15.2966 5.90853 15.3127 5.89923C15.564 5.74519 15.8616 5.65223 16.1725 5.63066C16.4834 5.60909 16.7954 5.65976 17.0738 5.77704C17.3522 5.89432 17.5862 6.07363 17.7497 6.29503C17.9132 6.51644 17.9998 6.77128 18 7.03126V22.9688C18 23.3417 17.8222 23.6994 17.5057 23.9631C17.1893 24.2268 16.7601 24.375 16.3125 24.375ZM22.5 19.6875C22.308 19.6875 22.1193 19.6465 21.9517 19.5685C21.7841 19.4905 21.6432 19.378 21.5425 19.2418C21.4418 19.1056 21.3846 18.9502 21.3763 18.7904C21.368 18.6306 21.409 18.4716 21.4952 18.3287C22.1625 17.2231 22.5007 16.1022 22.5007 15C22.5007 13.8645 22.173 12.777 21.4988 11.676C21.3696 11.4551 21.3496 11.2009 21.4431 10.9679C21.5366 10.7348 21.7361 10.5417 21.9987 10.4301C22.2614 10.3184 22.5661 10.2972 22.8473 10.3708C23.1286 10.4445 23.3639 10.6072 23.5027 10.824C24.3415 12.1945 24.75 13.5609 24.75 15C24.75 16.3981 24.3281 17.8014 23.5055 19.1713C23.4118 19.3265 23.2681 19.457 23.0906 19.5482C22.913 19.6393 22.7085 19.6876 22.5 19.6875Z" fill="#37231F"/>
<path d="M25.8748 22.5C25.6773 22.5 25.4832 22.4568 25.3122 22.3745C25.1411 22.2922 24.9991 22.1739 24.9003 22.0313C24.8015 21.8888 24.7495 21.7271 24.7495 21.5626C24.7495 21.398 24.8015 21.2363 24.9002 21.0938C26.2298 19.1654 26.9998 17.5494 26.9998 15C26.9998 12.4119 26.2312 10.807 24.903 8.90977C24.7574 8.69522 24.719 8.44149 24.7962 8.20352C24.8733 7.96554 25.0599 7.76248 25.3154 7.63829C25.571 7.5141 25.8749 7.47877 26.1615 7.53997C26.448 7.60116 26.6941 7.75394 26.8465 7.96524C28.3301 10.0846 29.2498 12.0006 29.2498 15C29.2498 17.9549 28.3315 19.8803 26.85 22.0313C26.7512 22.1739 26.609 22.2923 26.4378 22.3746C26.2666 22.4569 26.0724 22.5001 25.8748 22.5Z" fill="#37231F"/>
<path d="M29.2501 25.3125C29.0475 25.3124 28.8488 25.2667 28.6748 25.1802C28.5008 25.0937 28.358 24.9697 28.2616 24.8212C28.1652 24.6728 28.1186 24.5053 28.1269 24.3367C28.1352 24.168 28.198 24.0043 28.3087 23.8629C30.224 21.4143 31.5001 18.9703 31.5001 15C31.5001 11.1035 30.2219 8.63554 28.3016 6.12949C28.2221 6.02561 28.168 5.9097 28.1422 5.78838C28.1165 5.66706 28.1196 5.54269 28.1516 5.42239C28.1835 5.3021 28.2435 5.18822 28.3283 5.08726C28.413 4.9863 28.5208 4.90023 28.6454 4.83398C28.7701 4.76773 28.9092 4.72259 29.0548 4.70113C29.2004 4.67968 29.3496 4.68233 29.494 4.70894C29.6383 4.73554 29.775 4.78558 29.8961 4.8562C30.0173 4.92682 30.1206 5.01663 30.2001 5.12051C32.3305 7.90371 33.7501 10.6488 33.7501 15C33.7501 18.7939 32.7194 21.658 30.1923 24.8871C30.0901 25.0177 29.9504 25.125 29.7859 25.1993C29.6214 25.2736 29.4372 25.3125 29.2501 25.3125Z" fill="#37231F"/>
</g>
</svg>
